HIERARCHY
ROOT Hips
{
	OFFSET 0.00000 0.00000 0.00000
	CHANNELS 6 Xposition Yposition Zposition Zrotation Yrotation Xrotation 
	JOINT LHipJoint
	{
		OFFSET 0 0 0
		CHANNELS 3 Zrotation Yrotation Xrotation
		JOINT LeftHip
		{
			OFFSET 1.38615 -1.80049 0.80104
			CHANNELS 3 Zrotation Yrotation Xrotation
			JOINT LeftKnee
			{
				OFFSET 2.50172 -6.87341 0.00000
				CHANNELS 3 Zrotation Yrotation Xrotation
				JOINT LeftAnkle
				{
					OFFSET 2.67523 -7.35014 0.00000
					CHANNELS 3 Zrotation Yrotation Xrotation
					JOINT LeftToe
					{
						OFFSET 0.17446 -0.47932 2.13155
						CHANNELS 3 Zrotation Yrotation Xrotation
						End Site
						{
							OFFSET 0.00000 -0.00000 1.10023
						}
					}
				}
			}
		}
	}
	JOINT RHipJoint
	{
		OFFSET 0 0 0
		CHANNELS 3 Zrotation Yrotation Xrotation
		JOINT RightHip
		{
			OFFSET -1.18047 -1.80049 0.80104
			CHANNELS 3 Zrotation Yrotation Xrotation
			JOINT RightKnee
			{
				OFFSET -2.59789 -7.13765 0.00000
				CHANNELS 3 Zrotation Yrotation Xrotation
				JOINT RightAnkle
				{
					OFFSET -2.62125 -7.20183 0.00000
					CHANNELS 3 Zrotation Yrotation Xrotation
					JOINT RightToe
					{
						OFFSET -0.31287 -0.85960 2.07814
						CHANNELS 3 Zrotation Yrotation Xrotation
						End Site
						{
							OFFSET -0.00000 -0.00000 1.11766
						}
					}
				}
			}
		}
	}
	JOINT lowerback
	{
		OFFSET 0 0 0
		CHANNELS 3 Zrotation Yrotation Xrotation
		JOINT Chest
		{
			OFFSET -0.01587 2.16157 -0.12309
			CHANNELS 3 Zrotation Yrotation Xrotation
			JOINT Chest2
			{
				OFFSET 0.04727 2.16674 -0.03569
				CHANNELS 3 Zrotation Yrotation Xrotation
				JOINT lowerneck
				{
					OFFSET 0 0 0
					CHANNELS 3 Zrotation Yrotation Xrotation
					JOINT Neck
					{
						OFFSET -0.08586 1.60335 0.32783
						CHANNELS 3 Zrotation Yrotation Xrotation
						JOINT Head
						{
							OFFSET 0.07583 1.65857 -0.31618
							CHANNELS 3 Zrotation Yrotation Xrotation
							End Site
							{
								OFFSET 0.03386 1.69434 -0.14584
							}
						}
					}
				}
				JOINT LeftCollar
				{
					OFFSET 0 0 0
					CHANNELS 3 Zrotation Yrotation Xrotation
					JOINT LeftShoulder
					{
						OFFSET 3.17393 1.01901 -0.52897
CHANNELS 3 Zrotation Xrotation Yrotation
						JOINT LeftElbow
						{
OFFSET 0 -5.252870 -0.000000
CHANNELS 3 Zrotation Xrotation Yrotation
							JOINT LeftWrist
							{
OFFSET 0 -3.510140 0.000000
CHANNELS 3 Zrotation Xrotation Yrotation
								JOINT lhand
								{
									OFFSET 0 0 0
CHANNELS 3 Zrotation Xrotation Yrotation
									JOINT LFingers
									{
OFFSET 0 -0.706180 -0.000000
CHANNELS 3 Zrotation Xrotation Yrotation
										End Site
										{
OFFSET 0 -0.569340 -0.000000
										}
									}
								}
								JOINT LThumb
								{
OFFSET 0 0.000000 0.000000
CHANNELS 3 Zrotation Xrotation Yrotation
									End Site
									{
OFFSET 0 -0.578030 0.578030
									}
								}
							}
						}
					}
				}
				JOINT RightCollar
				{
					OFFSET 0 0 0
					CHANNELS 3 Zrotation Yrotation Xrotation
					JOINT RightShoulder
					{
						OFFSET -2.99471 1.26495 -0.61125
CHANNELS 3 Zrotation Xrotation Yrotation
						JOINT RightElbow
						{
OFFSET 0 -5.287210 -0.000000
CHANNELS 3 Zrotation Xrotation Yrotation
							JOINT RightWrist
							{
OFFSET 0 -3.505440 0.000000
CHANNELS 3 Zrotation Xrotation Yrotation
								JOINT rhand
								{
									OFFSET 0 0 0
CHANNELS 3 Zrotation Xrotation Yrotation
									JOINT RFingers
									{
OFFSET 0 -0.885000 -0.000000
CHANNELS 3 Zrotation Xrotation Yrotation
										End Site
										{
OFFSET 0 -0.713510 -0.000000
										}
									}
								}
								JOINT RThumb
								{
OFFSET 0 0.000000 0.000000
CHANNELS 3 Zrotation Xrotation Yrotation
									End Site
									{
OFFSET 0 -0.724400 0.724400
									}
								}
							}
						}
					}
				}
			}
		}
	}
}
MOTION
Frames: 5
Frame Time: 0.008333333333333333
11.090277 18.116788 1.027280 181.660713 17.927287 -172.509250 0.000000 0.000000 0.000000 -6.578757 -4.507266 -19.590165 5.471968 13.896291 42.823795 0.114319 -6.776328 -7.169303 0.817045 -5.766377 -16.108449 0.000000 0.000000 0.000000 18.513854 2.631103 -21.224402 -3.487544 -11.445270 33.796741 -1.317611 -0.674505 -21.955303 -0.025670 1.033821 -2.841902 4.744229 2.258209 7.938791 3.646797 3.776264 1.733450 0.731453 1.968243 -2.601006 -4.548590 -0.636862 -22.859114 -0.034246 1.429092 26.006420 1.044037 0.388946 12.404607 0.000000 0.000000 0.000000 39.477084 -70.767546 -2.158829 19.092142 -29.532875 5.076191 26.514678 4.809075 -38.709098 0.000000 0.000000 0.000000 -7.125000 0.000000 0.000000 -13.344061 71.431080 8.446078 0.000000 0.000000 0.000000 -7.887658 -58.363223 44.715825 -80.578582 -59.661670 -51.850104 -55.842538 -41.618445 -21.433331 0.000000 0.000000 0.000000 7.125000 0.000000 0.000000 -16.042408 -3.793186 -17.759915
11.104274 18.114843 1.007234 181.909947 18.061312 -172.537387 0.000000 0.000000 0.000000 -6.244777 -4.495983 -19.426769 5.338828 13.755217 42.266207 0.127088 -6.530291 -7.303826 0.700169 -5.344814 -14.895726 0.000000 0.000000 0.000000 18.798629 2.712915 -20.968782 -3.484018 -11.440180 33.779254 -1.328874 -0.651837 -22.039544 -0.026248 1.045922 -2.875245 5.426801 2.252418 9.123747 3.237413 3.912870 0.894820 -0.165656 1.961736 -4.058334 -4.173100 -0.473765 -22.457607 0.142537 1.559278 26.761561 1.084347 0.531627 12.621607 0.000000 0.000000 0.000000 38.382736 -69.816409 -4.025390 19.053943 -29.485642 5.057374 26.335884 4.383181 -38.784916 0.000000 0.000000 0.000000 -7.125000 0.000000 0.000000 -13.694546 71.443665 8.674307 0.000000 0.000000 0.000000 -6.307559 -56.489826 45.491961 -81.448102 -59.721258 -52.600799 -56.029640 -42.235087 -21.492691 0.000000 0.000000 0.000000 7.125000 0.000000 0.000000 -16.127506 -3.985631 -17.913485
11.115835 18.116070 0.983408 181.746282 18.274831 -172.552511 0.000000 0.000000 0.000000 -6.402348 -4.494958 -19.331835 5.192058 13.596347 41.644853 0.149733 -6.191004 -7.592359 0.605290 -4.976028 -13.841100 0.000000 0.000000 0.000000 18.621530 2.810456 -20.882420 -3.482790 -11.438385 33.773152 -1.344883 -0.560783 -22.137501 -0.037052 1.236052 -3.398698 5.767802 2.259881 10.202326 2.671261 4.010781 0.033436 -1.031887 1.921473 -5.499705 -3.739756 -0.325047 -22.206054 0.252633 1.698428 27.659919 1.095910 0.679521 12.932276 0.000000 0.000000 0.000000 37.617129 -68.846882 -5.577798 19.040365 -29.468817 5.050735 26.475448 4.349563 -39.123116 0.000000 0.000000 0.000000 -7.125000 0.000000 0.000000 -13.964006 71.811703 8.960171 0.000000 0.000000 0.000000 -4.796343 -54.752665 46.229549 -82.499826 -59.785069 -53.509357 -56.584027 -43.402372 -21.655357 0.000000 0.000000 0.000000 7.125000 0.000000 0.000000 -16.382173 -4.545136 -18.371391
11.128584 18.117189 0.960835 181.569726 18.503118 -172.479838 0.000000 0.000000 0.000000 -6.568619 -4.430167 -19.328182 5.032096 13.419088 40.959497 0.166405 -5.917806 -7.803105 0.498117 -4.514278 -12.529959 0.000000 0.000000 0.000000 18.433203 2.936604 -20.917210 -3.486658 -11.444048 33.792491 -1.361273 -0.477104 -22.240744 -0.055676 1.513138 -4.162094 5.633499 2.316357 10.448777 2.455677 4.071720 -0.293494 -1.210786 1.924525 -5.971626 -3.565045 -0.220198 -22.313596 0.100680 1.908005 28.165617 1.055406 0.778252 13.161106 0.000000 0.000000 0.000000 37.530016 -68.479337 -5.813102 18.966576 -29.377064 5.014499 26.953808 4.663344 -39.392692 0.000000 0.000000 0.000000 -7.125000 0.000000 0.000000 -13.661896 72.230578 8.886857 0.000000 0.000000 0.000000 -3.887157 -54.022546 46.853411 -83.386213 -59.833328 -54.275492 -57.287413 -45.180635 -22.112657 0.000000 0.000000 0.000000 7.125000 0.000000 0.000000 -16.630528 -5.612095 -18.958673
11.141564 18.115526 0.942063 181.617836 18.701278 -172.328042 0.000000 0.000000 0.000000 -6.481691 -4.278733 -19.342881 4.859173 13.222486 40.208668 0.178964 -5.702157 -7.964656 0.438386 -4.248615 -11.777116 0.000000 0.000000 0.000000 18.492279 3.054295 -20.992669 -3.494105 -11.454978 33.829981 -1.373133 -0.416558 -22.315310 -0.078528 1.800679 -4.955202 5.466022 2.393067 10.311194 2.476453 4.143510 -0.341003 -1.100513 1.964169 -5.952761 -3.552858 -0.160423 -22.539107 -0.134030 2.106467 28.408257 1.003121 0.834265 13.309296 0.000000 0.000000 0.000000 37.701180 -68.424636 -5.564887 18.850433 -29.232316 4.957624 27.418095 4.918648 -39.435268 0.000000 0.000000 0.000000 -7.125000 0.000000 0.000000 -13.058832 72.429971 8.548985 0.000000 0.000000 0.000000 -3.413025 -53.791474 47.370679 -84.128822 -59.868660 -54.917683 -58.341327 -47.940628 -22.901092 0.000000 0.000000 0.000000 7.125000 0.000000 0.000000 -16.964889 -7.385282 -19.841289
